# xmcd
#
# Track frame offsets: 
#        183
#        24038
#        40923
#        73368
#        91973
#        120383
#        136633
#        159110
#        182773
#
# Disc length: 2649 seconds
#
# Revision: 7
# Processed by: cddbd v1.5.2PL0 Copyright (c) Steve Scherf et al.
# Submitted via: ExactAudioCopyFreeDBPlugin 1.0
#
DISCID=650a5709
DTITLE=Peter Green Splinter Group - Soho Session [CD 1)
DYEAR=1998
DGENRE=Blues
TTITLE0=It Takes Time
TTITLE1=Homework
TTITLE2=Black Magic Woman
TTITLE3=Indians
TTITLE4=Hey Mama Keep Your Big Mouth Shut
TTITLE5=The Supernatural
TTITLE6=Rattlesnake Shake
TTITLE7=Shake Your Hips
TTITLE8=Albatross
EXTD=YEAR: 1998 ID3G:  17
EXTT0=
EXTT1=
EXTT2=
EXTT3=
EXTT4=
EXTT5=
EXTT6=
EXTT7=
EXTT8=
PLAYORDER=
